# xmcd CD database file
#
# Track frame offsets:
#	150
#	49674
#	105816
#	138179
#	170544
#	197466
#	221252
#	241144
#	266336
#
# Disc length: 3936 seconds
#
# Revision: 1
# Processed by: cddbd v1.5.2PL0 Copyright (c) Steve Scherf et al.
# Submitted via: CDex 1.51
#
DISCID=690f5e09
DTITLE=Wynton Kelly - Nine Classic Albums - CD 2
DYEAR=2015
DGENRE=Jazz
TTITLE0=Ballad Medley 1
TTITLE1=Ballad Medley 2
TTITLE2=Whisper Not
TTITLE3=Action
TTITLE4=Dark Eyes
TTITLE5=Strong Man
TTITLE6=I'll Wind
TTITLE7=Don't Explain
TTITLE8=You Can't Get Away
EXTD=YEAR: 2015
EXTT0=
EXTT1=
EXTT2=
EXTT3=
EXTT4=
EXTT5=
EXTT6=
EXTT7=
EXTT8=
PLAYORDER=
